<mxfile host="app.diagrams.net" modified="2023-11-28T01:17:27.972Z" agent="Mozilla/5.0 (Macintosh; Intel Mac OS X 10_15_7) AppleWebKit/537.36 (KHTML, like Gecko) Chrome/114.0.0.0 Safari/537.36" etag="3kIpb3AHkpcCqpfDtosW" version="22.1.4" type="device">
  <diagram name="Page-1" id="dSMUqag2BgeCHei3wXJQ">
    <mxGraphModel dx="1085" dy="641" grid="1" gridSize="10" guides="1" tooltips="1" connect="1" arrows="1" fold="1" page="1" pageScale="1" pageWidth="850" pageHeight="1100" math="0" shadow="0">
      <root>
        <mxCell id="0" />
        <mxCell id="1" parent="0" />
        <mxCell id="UhNYqbK7vAJCGghIXcZ0-1" value="location-service" style="rounded=0;whiteSpace=wrap;html=1;" vertex="1" parent="1">
          <mxGeometry x="360" y="300" width="120" height="60" as="geometry" />
        </mxCell>
        <mxCell id="UhNYqbK7vAJCGghIXcZ0-2" value="client 1" style="rounded=0;whiteSpace=wrap;html=1;" vertex="1" parent="1">
          <mxGeometry x="550" y="350" width="90" height="50" as="geometry" />
        </mxCell>
        <mxCell id="UhNYqbK7vAJCGghIXcZ0-3" value="client 2" style="rounded=0;whiteSpace=wrap;html=1;" vertex="1" parent="1">
          <mxGeometry x="550" y="270" width="90" height="50" as="geometry" />
        </mxCell>
        <mxCell id="UhNYqbK7vAJCGghIXcZ0-4" value="" style="rounded=0;whiteSpace=wrap;html=1;" vertex="1" parent="1">
          <mxGeometry x="170" y="300" width="110" height="100" as="geometry" />
        </mxCell>
        <mxCell id="UhNYqbK7vAJCGghIXcZ0-5" value="geolocation" style="ellipse;whiteSpace=wrap;html=1;" vertex="1" parent="1">
          <mxGeometry x="200" y="300" width="75" height="40" as="geometry" />
        </mxCell>
        <mxCell id="UhNYqbK7vAJCGghIXcZ0-6" value="dm" style="text;html=1;strokeColor=none;fillColor=none;align=center;verticalAlign=middle;whiteSpace=wrap;rounded=0;" vertex="1" parent="1">
          <mxGeometry x="180" y="360" width="60" height="30" as="geometry" />
        </mxCell>
        <mxCell id="UhNYqbK7vAJCGghIXcZ0-7" value="" style="endArrow=classic;html=1;rounded=0;entryX=0.5;entryY=0;entryDx=0;entryDy=0;" edge="1" parent="1" target="UhNYqbK7vAJCGghIXcZ0-1">
          <mxGeometry width="50" height="50" relative="1" as="geometry">
            <mxPoint x="240" y="300" as="sourcePoint" />
            <mxPoint x="243" y="250" as="targetPoint" />
            <Array as="points">
              <mxPoint x="240" y="240" />
              <mxPoint x="420" y="240" />
            </Array>
          </mxGeometry>
        </mxCell>
        <mxCell id="UhNYqbK7vAJCGghIXcZ0-10" value="" style="endArrow=classic;startArrow=classic;html=1;rounded=0;entryX=0.5;entryY=1;entryDx=0;entryDy=0;" edge="1" parent="1" target="UhNYqbK7vAJCGghIXcZ0-1">
          <mxGeometry width="50" height="50" relative="1" as="geometry">
            <mxPoint x="420" y="400" as="sourcePoint" />
            <mxPoint x="450" y="310" as="targetPoint" />
          </mxGeometry>
        </mxCell>
        <mxCell id="UhNYqbK7vAJCGghIXcZ0-11" value="redis" style="rounded=0;whiteSpace=wrap;html=1;" vertex="1" parent="1">
          <mxGeometry x="380" y="400" width="80" height="30" as="geometry" />
        </mxCell>
        <mxCell id="UhNYqbK7vAJCGghIXcZ0-13" value="" style="rounded=0;whiteSpace=wrap;html=1;opacity=30;fillColor=#ffe6cc;strokeColor=#d79b00;" vertex="1" parent="1">
          <mxGeometry x="320" y="270" width="200" height="180" as="geometry" />
        </mxCell>
        <mxCell id="UhNYqbK7vAJCGghIXcZ0-14" value="location server" style="text;html=1;strokeColor=none;fillColor=none;align=center;verticalAlign=middle;whiteSpace=wrap;rounded=0;" vertex="1" parent="1">
          <mxGeometry x="320" y="270" width="60" height="30" as="geometry" />
        </mxCell>
        <mxCell id="UhNYqbK7vAJCGghIXcZ0-16" value="" style="endArrow=classic;html=1;rounded=0;exitX=0;exitY=0.5;exitDx=0;exitDy=0;entryX=1;entryY=0.25;entryDx=0;entryDy=0;" edge="1" parent="1" source="UhNYqbK7vAJCGghIXcZ0-3" target="UhNYqbK7vAJCGghIXcZ0-13">
          <mxGeometry width="50" height="50" relative="1" as="geometry">
            <mxPoint x="280" y="360" as="sourcePoint" />
            <mxPoint x="330" y="310" as="targetPoint" />
          </mxGeometry>
        </mxCell>
        <mxCell id="UhNYqbK7vAJCGghIXcZ0-17" value="" style="endArrow=classic;html=1;rounded=0;exitX=0;exitY=0.5;exitDx=0;exitDy=0;entryX=1;entryY=0.5;entryDx=0;entryDy=0;" edge="1" parent="1" source="UhNYqbK7vAJCGghIXcZ0-2" target="UhNYqbK7vAJCGghIXcZ0-13">
          <mxGeometry width="50" height="50" relative="1" as="geometry">
            <mxPoint x="560" y="305" as="sourcePoint" />
            <mxPoint x="530" y="325" as="targetPoint" />
          </mxGeometry>
        </mxCell>
      </root>
    </mxGraphModel>
  </diagram>
</mxfile>
